<?xml version="1.0" standalone="no"?>
<!DOCTYPE svg PUBLIC "-//W3C//DTD SVG 1.1//EN" "http://www.w3.org/Graphics/SVG/1.1/DTD/svg11.dtd" >
<svg xmlns="http://www.w3.org/2000/svg">
<metadata></metadata>
<defs>
<font id="jls_space_gothicr_ncregular" horiz-adv-x="980" >
<font-face units-per-em="2048" ascent="1536" descent="-512" />
<missing-glyph horiz-adv-x="512" />
<glyph horiz-adv-x="2048" />
<glyph horiz-adv-x="2048" />
<glyph unicode="&#xd;" horiz-adv-x="2048" />
<glyph unicode=" "  horiz-adv-x="512" />
<glyph unicode="&#x09;" horiz-adv-x="512" />
<glyph unicode="&#xa0;" horiz-adv-x="512" />
<glyph unicode="!" horiz-adv-x="483" d="M102 47v109q0 20 14.5 33.5t33.5 13.5h100q19 0 33 -13.5t14 -33.5v-109q0 -20 -14 -33.5t-33 -13.5h-100q-19 0 -33.5 13.5t-14.5 33.5zM102 352v1034q0 20 14.5 34t33.5 14h184q20 0 33.5 -14t13.5 -34v-581q0 -27 -16 -49l-60 -80q-8 -11 -8 -23v-301q0 -20 -14 -33.5 t-33 -13.5h-100q-19 0 -33.5 13.5t-14.5 33.5z" />
<glyph unicode="&#x22;" horiz-adv-x="489" d="M43 1386q-1 20 13 35t34 15h84q20 0 34 -15t13 -35l-35 -352q-2 -21 -14.5 -35t-32.5 -14h-14q-20 0 -32.5 14t-14.5 35zM268 1386q-1 20 13 35t34 15h84q20 0 34 -15t13 -35l-34 -352q-2 -21 -14.5 -35t-32.5 -14h-15q-20 0 -32.5 14t-14.5 35z" />
<glyph unicode="#" horiz-adv-x="1234" d="M33 399l6 84q1 20 17.5 33.5t37.5 13.5h135l37 369h-133q-20 0 -32.5 13.5t-10.5 33.5l6 84q1 20 18 33.5t38 13.5h133l41 379q1 20 16.5 33.5t34.5 13.5h84q20 0 32.5 -13.5t10.5 -33.5l-41 -379h395l41 379q1 20 16.5 33.5t34.5 13.5h84q20 0 32.5 -13.5t10.5 -33.5 l-41 -379h123q20 0 32.5 -13.5t10.5 -33.5l-6 -84q-1 -20 -17.5 -33.5t-37.5 -13.5h-123l-41 -369h125q20 0 32.5 -13.5t10.5 -33.5l-6 -84q-1 -20 -18 -33.5t-38 -13.5h-125l-40 -375q-2 -20 -17 -34.5t-35 -14.5h-82q-18 0 -30 14.5t-11 34.5l39 375h-397l-41 -375 q-2 -20 -16.5 -34.5t-34.5 -14.5h-80q-18 0 -30 14.5t-11 34.5l39 375h-135q-20 0 -32.5 13.5t-10.5 33.5zM403 530h398l39 369h-396z" />
<glyph unicode="$" horiz-adv-x="1064" d="M72 360v86q0 20 13.5 34t33.5 14h84q20 0 33.5 -14t13.5 -34v-86q0 -23 16 -39t39 -16h322q23 0 39 16.5t16 38.5v211q0 23 -17 39.5t-40 16.5h-320q-97 0 -165 69t-68 166v209q0 97 68.5 166.5t164.5 69.5h103q23 0 36 15.5t13 39.5v24q0 19 14.5 33.5t34.5 14.5h53 q20 0 33.5 -14.5t13.5 -33.5v-24q0 -24 13.5 -39.5t35.5 -15.5h103q104 0 169.5 -73t65.5 -163v-78q0 -20 -13.5 -33.5t-33.5 -13.5h-84q-20 0 -33.5 13.5t-13.5 33.5v78q0 23 -17 39t-40 16h-453q-23 0 -39 -16t-16 -39v-209q0 -23 16 -40t39 -17h453q97 0 166 -68.5 t69 -165.5v-211q0 -97 -69 -165t-166 -68h-103q-21 0 -35 -16.5t-14 -40.5v-23q0 -20 -13.5 -33.5t-33.5 -13.5h-53q-20 0 -34.5 13.5t-14.5 33.5v23q0 24 -13 40.5t-36 16.5h-103q-97 0 -165 68t-68 165z" />
<glyph unicode="%" horiz-adv-x="1423" d="M82 993v205q0 97 69 166.5t166 69.5h72q97 0 165.5 -69.5t68.5 -166.5v-205q0 -97 -68.5 -165t-165.5 -68h-72q-97 0 -166 68t-69 165zM226 46q-5 19 5 36l785 1358q9 17 27.5 22t35.5 -4l74 -43q17 -9 22 -27.5t-6 -35.5l-784 -1358q-9 -17 -27.5 -22.5t-35.5 3.5 l-74 43q-17 9 -22 28zM262 987q0 -49 47 -49h86q49 0 49 49v219q0 49 -49 49h-86q-47 0 -47 -49v-219zM803 236v204q0 97 68 165.5t165 68.5h72q97 0 165 -68.5t68 -165.5v-204q0 -97 -68.5 -166.5t-164.5 -69.5h-72q-96 0 -164.5 69.5t-68.5 166.5zM981 227q0 -49 47 -49 h86q49 0 49 49v219q0 23 -13 36.5t-36 13.5h-86q-47 0 -47 -50v-219z" />
<glyph unicode="&#x26;" horiz-adv-x="1155" d="M82 236v426q0 45 10 77t39 68q-29 35 -39 67.5t-10 77.5v248q0 97 68 165.5t165 68.5h412q97 0 166.5 -68.5t69.5 -165.5v-80q0 -19 -14.5 -33t-33.5 -14h-84q-20 0 -34.5 14t-14.5 33v90q0 19 -12.5 32t-32.5 13h-432q-19 0 -32 -13t-13 -32v-268q0 -19 13 -32t32 -13 h762q19 0 33 -13.5t14 -33.5v-86q0 -20 -14 -33.5t-33 -13.5h-49q-23 0 -39 -16t-16 -39v-805q0 -20 -14.5 -33.5t-35.5 -13.5h-84q-19 0 -33 13.5t-14 33.5v98q0 19 -12.5 32t-32.5 13h-422q-96 0 -164.5 69.5t-68.5 166.5zM393 223q0 -19 13 -32t32 -13h297q19 0 33 13.5 t14 33.5v437q0 23 -17 39t-40 16h-287q-19 0 -32 -13t-13 -32v-449z" />
<glyph unicode="'" horiz-adv-x="253" d="M43 1386q-1 20 13 35t34 15h84q20 0 34 -15t13 -35l-35 -352q-2 -21 -14.5 -35t-32.5 -14h-14q-20 0 -32.5 14t-14.5 35z" />
<glyph unicode="(" horiz-adv-x="546" d="M82 78v1280q0 97 68 165t165 68h134q20 0 33.5 -14t13.5 -33v-63q0 -20 -13.5 -33.5t-33.5 -13.5h-127q-23 0 -39.5 -16.5t-16.5 -39.5v-534q0 -12 8 -23l60 -80q16 -22 16 -49v-637q0 -23 16.5 -39t39.5 -16h43q20 0 33.5 -13.5t13.5 -33.5v-64q0 -19 -13.5 -33 t-33.5 -14h-134q-96 0 -164.5 69.5t-68.5 166.5z" />
<glyph unicode=")" horiz-adv-x="546" d="M51 -47q0 20 13.5 33.5t33.5 13.5h43q23 0 39.5 16t16.5 39v637q0 27 16 49l59 80q9 12 9 23v534q0 23 -16.5 39.5t-39.5 16.5h-127q-20 0 -33.5 13.5t-13.5 33.5v63q0 19 13.5 33t33.5 14h133q97 0 165.5 -68t68.5 -165v-1280q0 -97 -68.5 -166.5t-165.5 -69.5h-133 q-20 0 -33.5 14t-13.5 33v64z" />
<glyph unicode="*" horiz-adv-x="847" d="M72 1081v54q0 20 14 34.5t33 14.5h125q12 0 22 16.5t4 26.5l-63 108q-9 17 -4 35.5t22 28.5l47 28q17 10 36 4.5t28 -22.5l63 -106q8 -12 26.5 -12t25.5 12l61 106q9 17 29 22.5t37 -4.5l47 -28q17 -10 21 -28.5t-5 -35.5l-61 -108q-6 -11 3 -27t21 -16h125 q20 0 33.5 -14.5t13.5 -34.5v-54q0 -20 -13.5 -33.5t-33.5 -13.5h-125q-12 0 -21 -17t-3 -28l61 -106q11 -19 6 -38t-22 -28l-47 -26q-17 -9 -37 -5t-29 21l-61 106q-8 12 -27 11.5t-25 -11.5l-63 -106q-9 -17 -28 -21t-36 5l-47 26q-17 9 -22.5 28t4.5 38l63 106 q6 10 -4 27.5t-22 17.5h-125q-19 0 -33 13.5t-14 33.5z" />
<glyph unicode="+" horiz-adv-x="960" d="M72 698v84q0 20 13.5 34.5t33.5 14.5h227q19 0 32 13.5t13 32.5v225q0 20 13.5 33.5t33.5 13.5h84q20 0 33.5 -13.5t13.5 -33.5v-225q0 -19 13 -32.5t32 -13.5h228q20 0 33.5 -14.5t13.5 -34.5v-84q0 -19 -13.5 -33t-33.5 -14h-228q-19 0 -32 -13t-13 -32v-225 q0 -20 -13.5 -34.5t-33.5 -14.5h-84q-20 0 -33.5 14.5t-13.5 34.5v225q0 19 -13 32t-32 13h-227q-20 0 -33.5 14t-13.5 33z" />
<glyph unicode="," horiz-adv-x="356" d="M82 -111v267q0 20 13.5 33.5t33.5 13.5h98q20 0 33.5 -13.5t13.5 -33.5v-95q0 -49 -28 -84l-99 -114q-17 -19 -41 -8.5t-24 34.5z" />
<glyph unicode="-" horiz-adv-x="593" d="M72 608v70q0 20 14.5 33.5t34.5 13.5h352q20 0 34.5 -13.5t14.5 -33.5v-70q0 -20 -14.5 -33.5t-34.5 -13.5h-352q-20 0 -34.5 13.5t-14.5 33.5z" />
<glyph unicode="." horiz-adv-x="358" d="M82 47v109q0 20 14 33.5t33 13.5h100q19 0 33 -13.5t14 -33.5v-109q0 -20 -14 -33.5t-33 -13.5h-100q-19 0 -33 13.5t-14 33.5z" />
<glyph unicode="/" horiz-adv-x="1046" d="M74 58.5q-5 18.5 6 35.5l784 1358q9 17 28 22t36 -4l73 -43q17 -9 22 -27.5t-5 -35.5l-785 -1358q-9 -17 -27.5 -22t-35.5 4l-74 43q-17 9 -22 27.5z" />
<glyph unicode="0" horiz-adv-x="1085" d="M82 236v964q0 97 68 165.5t165 68.5h453q97 0 166.5 -68.5t69.5 -165.5v-964q0 -97 -69.5 -166.5t-166.5 -69.5h-453q-96 0 -164.5 69.5t-68.5 166.5zM260 1210q0 -29 16 -51l517 -614q9 -12 19.5 -9.5t10.5 19.5v655q0 19 -12.5 32t-32.5 13h-473q-19 0 -32 -13t-13 -32 zM391 233q0 -23 16.5 -39t38.5 -16h332q20 0 32.5 12t12.5 31q0 8 -2 14t-3.5 9t-7.5 9.5t-9 10.5l-381 457q-9 11 -19 7t-10 -15v-480z" />
<glyph unicode="1" horiz-adv-x="917" d="M31 49v80q0 20 14.5 34.5t34.5 14.5h168q23 0 40 14.5t17 36.5v465q0 26 14 47l109 148q8 11 8 22v289q0 23 -16 39t-39 16h-229q-20 0 -34 14t-14 34v83q0 20 14 34t34 14h415q20 0 33.5 -14t13.5 -34v-1153q0 -23 16.5 -39t39.5 -16h170q20 0 33.5 -14.5t13.5 -34.5 v-80q0 -20 -13.5 -34.5t-33.5 -14.5h-760q-20 0 -34.5 14.5t-14.5 34.5z" />
<glyph unicode="2" horiz-adv-x="1085" d="M82 90v543q0 97 68 165t165 68h465q19 0 32 13t13 32v299q0 19 -13 32t-32 13h-475q-19 0 -32 -13t-13 -32v-90q0 -19 -13.5 -33t-33.5 -14h-84q-20 0 -33.5 14t-13.5 33v80q0 97 68 165.5t165 68.5h455q97 0 165.5 -68.5t68.5 -165.5v-278q0 -97 -68.5 -165.5 t-165.5 -68.5h-332q-19 0 -32 -13t-13 -32v-412q0 -23 17 -38t39 -15h331q19 0 32 13t13 32v90q0 20 13.5 33.5t33.5 13.5h84q20 0 34 -13.5t14 -33.5v-223q0 -37 -27 -63.5t-64 -26.5h-741q-37 0 -63.5 26.5t-26.5 63.5z" />
<glyph unicode="3" horiz-adv-x="1064" d="M61 236v77q0 20 14.5 33.5t33.5 13.5h84q20 0 34.5 -13.5t14.5 -33.5v-90q0 -19 12.5 -32t32.5 -13h340q19 0 32 13t13 32v449q0 19 -13 32t-32 13h-334q-20 0 -33.5 14t-13.5 33v84q0 20 13.5 34.5t33.5 14.5h467q19 0 32 13t13 32v268q0 19 -13 32t-32 13h-473 q-20 0 -32.5 -13t-12.5 -32v-90q0 -19 -14.5 -33t-34.5 -14h-84q-19 0 -33.5 14t-14.5 33v80q0 97 69.5 165.5t166.5 68.5h453q97 0 165 -68.5t68 -165.5v-248q0 -83 -49 -145q49 -65 49 -145v-426q0 -97 -68.5 -166.5t-164.5 -69.5h-453q-97 0 -166.5 69.5t-69.5 166.5z " />
<glyph unicode="4" horiz-adv-x="1169" d="M82 629v757q0 19 14.5 33.5t34.5 14.5h84q19 0 33 -14.5t14 -33.5v-624q0 -19 13 -32t32 -13h453q20 0 32.5 13t12.5 32v624q0 19 14 33.5t33 14.5h84q20 0 34.5 -14.5t14.5 -33.5v-624q0 -19 12 -32t31 -13h33q20 0 33.5 -14t13.5 -33v-84q0 -20 -14 -33.5t-33 -13.5 h-31q-20 0 -32.5 -13t-12.5 -32v-447q0 -20 -14.5 -33.5t-34.5 -13.5h-215q-20 0 -33.5 13.5t-13.5 33.5v447q0 19 -12.5 32t-32.5 13h-457q-37 0 -63.5 26t-26.5 64z" />
<glyph unicode="5" horiz-adv-x="1085" d="M82 236v77q0 20 13.5 33.5t33.5 13.5h84q20 0 33.5 -13.5t13.5 -33.5v-90q0 -19 13 -32t32 -13h342q19 0 32 13t13 32v449q0 19 -13 32t-32 13h-475q-38 0 -64 26.5t-26 63.5v536q0 37 26.5 64t63.5 27h741q37 0 64 -27t27 -64v-223q0 -19 -14.5 -33t-33.5 -14h-84 q-20 0 -34.5 14t-14.5 33v90q0 19 -12.5 32t-32.5 13h-465q-23 0 -38 -16.5t-15 -38.5v-258q0 -19 13 -32t32 -13h463q97 0 166.5 -69t69.5 -166v-426q0 -97 -69.5 -166.5t-166.5 -69.5h-453q-96 0 -164.5 69.5t-68.5 166.5z" />
<glyph unicode="6" horiz-adv-x="1085" d="M82 236v964q0 97 69 165.5t166 68.5h453q97 0 165.5 -68.5t68.5 -165.5v-80q0 -19 -14 -33t-34 -14h-84q-20 0 -33.5 14t-13.5 33v90q0 19 -13 32t-32 13h-475q-19 0 -32 -13t-13 -32v-268q0 -19 13 -32t32 -13h465q97 0 165.5 -69t68.5 -166v-426q0 -97 -68.5 -166.5 t-165.5 -69.5h-453q-97 0 -166 69.5t-69 166.5zM393 223q0 -19 13 -32t32 -13h342q19 0 32 13t13 32v449q0 19 -13 32t-32 13h-331q-23 0 -39.5 -16t-16.5 -39v-439z" />
<glyph unicode="7" horiz-adv-x="1085" d="M61 1120v223q0 37 27 64t64 27h782q36 0 63 -26t27 -65v-135q0 -32 -3.5 -45.5t-19.5 -36.5l-288 -421q-15 -25 -15 -68v-590q0 -20 -14 -33.5t-33 -13.5h-215q-20 0 -34.5 13.5t-14.5 33.5v467q0 36 19 70l434 618q6 10 6 23v16q0 14 -19 14h-540q-20 0 -33.5 -13 t-13.5 -32v-90q0 -20 -13.5 -33.5t-33.5 -13.5h-84q-19 0 -33.5 13.5t-14.5 33.5z" />
<glyph unicode="8" horiz-adv-x="1085" d="M82 236v426q0 80 49 145q-49 65 -49 145v248q0 97 68 165.5t165 68.5h453q97 0 166.5 -68.5t69.5 -165.5v-248q0 -76 -52 -145q52 -69 52 -145v-426q0 -97 -69.5 -166.5t-166.5 -69.5h-453q-96 0 -164.5 69.5t-68.5 166.5zM260 942q0 -19 13 -32t32 -13h473q19 0 32 13 t13 32v268q0 19 -13 32t-32 13h-473q-19 0 -32 -13t-13 -32v-268zM393 223q0 -19 13 -32t32 -13h340q19 0 32 13t13 32v449q0 19 -13 32t-32 13h-340q-19 0 -32 -13t-13 -32v-449z" />
<glyph unicode="9" horiz-adv-x="1087" d="M82 236v77q0 20 14.5 33.5t34.5 13.5h82q20 0 34.5 -13.5t14.5 -33.5v-90q0 -19 13 -32t32 -13h340q19 0 32 13t13 32v271q0 19 -13 32t-32 13h-330q-97 0 -166 69t-69 166v426q0 97 69 165.5t166 68.5h453q97 0 166.5 -68.5t69.5 -165.5v-964q0 -97 -69.5 -166.5 t-166.5 -69.5h-453q-97 0 -166 69.5t-69 166.5zM262 762q0 -19 13 -32t32 -13h473q20 0 32.5 13t12.5 32v448q0 19 -13 32t-32 13h-473q-19 0 -32 -13t-13 -32v-448z" />
<glyph unicode=":" horiz-adv-x="358" d="M82 47v139q0 20 14 33.5t33 13.5h100q19 0 33 -13.5t14 -33.5v-139q0 -20 -14 -33.5t-33 -13.5h-100q-19 0 -33 13.5t-14 33.5zM82 838v139q0 20 14 33.5t33 13.5h100q19 0 33 -13.5t14 -33.5v-139q0 -20 -14 -33.5t-33 -13.5h-100q-19 0 -33 13.5t-14 33.5z" />
<glyph unicode=";" horiz-adv-x="358" d="M82 838v139q0 20 14 33.5t33 13.5h100q19 0 33 -13.5t14 -33.5v-139q0 -20 -14 -33.5t-33 -13.5h-100q-19 0 -33 13.5t-14 33.5zM84 -70v256q0 20 13.5 33.5t33.5 13.5h98q20 0 33.5 -13.5t13.5 -33.5v-125q0 -35 -28 -63l-98 -94q-19 -18 -42.5 -8t-23.5 34z" />
<glyph unicode="&#x3c;" horiz-adv-x="749" d="M72 729q0 21 14 35l451 450q15 15 32 15q16 0 35 -15l60 -59q14 -17 14 -35q0 -19 -14 -33l-340 -339q-9 -9 -9 -19q0 -9 9 -18l340 -340q14 -14 14 -33q0 -18 -14 -35l-60 -59q-19 -15 -35 -15q-17 0 -32 15l-451 450q-14 14 -14 35z" />
<glyph unicode="=" horiz-adv-x="919" d="M72 535v83q0 20 14 34t33 14h682q20 0 33.5 -14t13.5 -34v-83q0 -19 -13.5 -33.5t-33.5 -14.5h-682q-19 0 -33 14.5t-14 33.5zM72 864v84q0 19 14 33t33 14h682q20 0 33.5 -14t13.5 -33v-84q0 -20 -13.5 -34.5t-33.5 -14.5h-682q-19 0 -33 14.5t-14 34.5z" />
<glyph unicode="&#x3e;" horiz-adv-x="749" d="M72 338q0 19 14 33l340 340q8 8 8 18q0 11 -8 19l-340 339q-14 14 -14 33q0 18 14 35l59 59q19 15 35 15q18 0 33 -15l451 -450q14 -14 14 -35t-14 -35l-451 -450q-15 -15 -33 -15q-16 0 -35 15l-59 59q-14 17 -14 35z" />
<glyph unicode="?" horiz-adv-x="1052" d="M61 1122v76q0 97 68.5 166.5t165.5 69.5h463q96 0 164.5 -69.5t68.5 -166.5v-268q0 -97 -68 -165.5t-165 -68.5h-103q-22 0 -38.5 -16t-16.5 -39v-291q0 -20 -14 -33.5t-33 -13.5h-100q-19 0 -33 13.5t-14 33.5v80q0 11 -9 23l-59 79q-16 22 -16 50v61q0 97 68 165.5 t165 68.5h201q23 0 39 16t16 39v268q0 23 -16 39t-39 16h-461q-23 0 -39 -16t-16 -39v-78q0 -20 -13.5 -33.5t-33.5 -13.5h-84q-20 0 -34 13.5t-14 33.5zM406 47v109q0 20 14 33.5t33 13.5h100q19 0 33 -13.5t14 -33.5v-109q0 -20 -14 -33.5t-33 -13.5h-100q-19 0 -33 13.5 t-14 33.5z" />
<glyph unicode="@" horiz-adv-x="1523" d="M82 233v967q0 97 69 165.5t166 68.5h889q97 0 166.5 -68.5t69.5 -165.5v-721q0 -96 -69.5 -164.5t-166.5 -68.5h-114q-97 0 -172 78q-10 10 -21 10q-10 0 -20 -10l-39 -39q-39 -39 -97 -39h-98q-97 0 -165 68t-68 165v447q0 97 68 165t165 68h227q97 0 165.5 -68 t68.5 -165v-459q0 -23 16 -40t39 -17h62q23 0 39 16t16 39v749q0 23 -17 39.5t-40 16.5h-920q-23 0 -39 -16.5t-16 -39.5v-995q0 -23 17 -39t40 -16h1090q20 0 33.5 -12.5t13.5 -32.5v-72q0 -20 -13.5 -33.5t-33.5 -13.5h-1076q-97 0 -166 68t-69 165zM575 467 q0 -23 17.5 -40t40.5 -17h72q31 0 47 16l88 88q18 18 18 61v177q0 27 16 49l60 80q8 11 8 22v37q0 23 -16 39t-39 16h-254q-24 0 -41 -16t-17 -39v-473z" />
<glyph unicode="A" horiz-adv-x="1105" d="M82 47v1014q0 82 80 141l266 201q59 47 127 47q64 0 123 -47l266 -201q80 -59 80 -141v-1014q0 -20 -13.5 -33.5t-33.5 -13.5h-86q-20 0 -33.5 13.5t-13.5 33.5v436q0 22 -16.5 38t-39.5 16h-339q-23 0 -39.5 -16.5t-16.5 -39.5v-434q0 -20 -14 -33.5t-33 -13.5h-217 q-19 0 -33 13.5t-14 33.5zM260 770q0 -22 17 -37.5t40 -15.5h471q22 0 39 16t17 37v266q0 25 -19 39l-221 166q-29 21 -47 21q-26 0 -55 -21l-223 -166q-19 -14 -19 -39v-266z" />
<glyph unicode="B" horiz-adv-x="1087" d="M82 47v1151q0 97 69 166.5t166 69.5h453q97 0 166.5 -69.5t69.5 -166.5v-244q0 -99 -72 -168q-9 -9 -9 -21.5t9 -19.5q72 -66 72 -167v-342q0 -97 -69.5 -166.5t-166.5 -69.5h-639q-20 0 -34.5 14t-14.5 33zM262 913q0 -23 16 -40t39 -17h453q23 0 39 17t16 40v285 q0 23 -16 40t-39 17h-453q-23 0 -39 -17t-16 -40v-285zM393 236q0 -23 16.5 -40.5t39.5 -17.5h321q23 0 39 17t16 41v385q0 23 -16 39t-39 16h-321q-23 0 -39.5 -16t-16.5 -39v-385z" />
<glyph unicode="C" horiz-adv-x="1083" d="M82 236v962q0 97 69 166.5t166 69.5h459q97 0 166.5 -69.5t69.5 -166.5v-78q0 -20 -14.5 -33.5t-34.5 -13.5h-84q-19 0 -33.5 13.5t-14.5 33.5v78q0 23 -16 40t-39 17h-459q-23 0 -40 -17t-17 -40v-287q0 -10 8 -22l109 -148q16 -19 16 -47v-458q0 -24 15 -41t36 -17h332 q23 0 39 17t16 41v77q0 20 14.5 33.5t33.5 13.5h84q20 0 34.5 -13.5t14.5 -33.5v-77q0 -97 -69.5 -166.5t-166.5 -69.5h-459q-97 0 -166 69.5t-69 166.5z" />
<glyph unicode="D" horiz-adv-x="1085" d="M82 47v1339q0 20 14 34t33 14h641q97 0 165.5 -69.5t68.5 -166.5v-962q0 -97 -68.5 -166.5t-165.5 -69.5h-641q-19 0 -33 14t-14 33zM262 911q0 -13 6 -22l109 -148q16 -19 16 -47v-458q0 -23 16.5 -40.5t39.5 -17.5h321q23 0 39 17t16 41v962q0 23 -16 40t-39 17h-453 q-23 0 -39 -17t-16 -40v-287z" />
<glyph unicode="E" horiz-adv-x="1046" d="M82 236v962q0 97 69 166.5t166 69.5h619q20 0 34.5 -14t14.5 -34v-83q0 -20 -14.5 -34t-34.5 -14h-619q-23 0 -39 -17t-16 -40v-287q0 -23 16 -40t39 -17h514q20 0 34 -13.5t14 -33.5v-84q0 -20 -14 -33.5t-34 -13.5h-382q-23 0 -39.5 -16t-16.5 -39v-385q0 -24 15 -41 t38 -17h490q20 0 34.5 -13.5t14.5 -33.5v-84q0 -19 -14.5 -33t-34.5 -14h-619q-97 0 -166 69.5t-69 166.5z" />
<glyph unicode="F" horiz-adv-x="1024" d="M82 47v1151q0 97 68.5 166.5t164.5 69.5h641q19 0 33.5 -14t14.5 -34v-83q0 -20 -14.5 -34t-33.5 -14h-641q-23 0 -39 -17t-16 -40v-287q0 -23 15.5 -40t37.5 -17h537q20 0 33.5 -13.5t13.5 -33.5v-84q0 -20 -13.5 -33.5t-33.5 -13.5h-401q-23 0 -39.5 -16t-16.5 -39 v-574q0 -19 -13.5 -33t-33.5 -14h-217q-20 0 -33.5 14t-13.5 33z" />
<glyph unicode="G" horiz-adv-x="1093" d="M82 236v962q0 97 68.5 166.5t164.5 69.5h463q97 0 165.5 -69.5t68.5 -166.5v-78q0 -20 -13.5 -33.5t-33.5 -13.5h-86q-20 0 -34 13.5t-14 33.5v78q0 23 -16 40t-39 17h-461q-23 0 -39 -17t-16 -40v-287q0 -13 6 -22l111 -148q16 -19 16 -47v-458q0 -23 17 -40.5t39 -17.5 h327q23 0 39 17t16 41v245q0 22 -16 39t-39 17h-51q-20 0 -34.5 13.5t-14.5 33.5v86q0 20 14.5 33.5t34.5 13.5h240q20 0 33.5 -13.5t13.5 -33.5v-434q0 -97 -68.5 -166.5t-165.5 -69.5h-463q-96 0 -164.5 69.5t-68.5 166.5z" />
<glyph unicode="H" horiz-adv-x="1085" d="M82 47v1339q0 20 14 34t33 14h82q20 0 34.5 -14t14.5 -34v-475q0 -23 16 -40t39 -17h453q23 0 39 17t16 40v475q0 20 14 34t33 14h84q20 0 35 -14t15 -34v-1339q0 -19 -15 -33t-35 -14h-84q-19 0 -33 14t-14 33v574q0 23 -16 39t-39 16h-319q-22 0 -39 -14.5t-17 -34.5 v-580q0 -19 -14 -33t-33 -14h-217q-19 0 -33 14t-14 33z" />
<glyph unicode="I" horiz-adv-x="862" d="M72 47v84q0 20 14.5 33.5t34.5 13.5h102q19 0 38.5 17t19.5 41v962q0 23 -17.5 40t-40.5 17h-102q-20 0 -34.5 14t-14.5 34v83q0 20 14.5 34t34.5 14h524q20 0 34.5 -14t14.5 -34v-83q0 -20 -14.5 -34t-34.5 -14h-129q-23 0 -40 -17t-17 -40v-287q0 -14 8 -22l108 -148 q17 -20 17 -47v-458q0 -23 17 -40.5t40 -17.5h103q20 0 34.5 -13.5t14.5 -33.5v-84q0 -20 -14.5 -33.5t-34.5 -13.5h-631q-20 0 -34.5 13.5t-14.5 33.5z" />
<glyph unicode="J" horiz-adv-x="1044" d="M41 236v77q0 20 13.5 33.5t33.5 13.5h86q20 0 33.5 -13.5t13.5 -33.5v-80q0 -23 16 -39t39 -16h320q23 0 39 16t16 39v463q0 23 17 47l110 148q6 9 6 22v287q0 23 -16 39t-39 16h-235q-19 0 -33.5 15t-14.5 35v79q0 20 14.5 35t33.5 15h421q19 0 33.5 -15t14.5 -35v-1148 q0 -97 -69.5 -166.5t-166.5 -69.5h-453q-96 0 -164.5 69.5t-68.5 166.5z" />
<glyph unicode="K" horiz-adv-x="1087" d="M82 47v1339q0 20 14.5 34t34.5 14h80q20 0 34.5 -14t14.5 -34v-473q0 -23 16 -40t39 -17h332q26 0 49 23l113 112q16 16 16 56v339q0 20 14 34t33 14h84q20 0 35 -14t15 -34v-362q0 -69 -52 -121l-84 -84q-8 -9 -6 -18.5t10 -12.5q132 -50 132 -190v-551q0 -19 -15 -33 t-35 -14h-84q-19 0 -33 14t-14 33v574q0 23 -16 39t-39 16h-324q-22 0 -37.5 -16t-15.5 -39v-574q0 -19 -13.5 -33t-33.5 -14h-215q-20 0 -34.5 14t-14.5 33z" />
<glyph unicode="L" horiz-adv-x="1044" d="M82 47v1339q0 20 13.5 34t33.5 14h84q20 0 33.5 -14t13.5 -34v-473q0 -13 6 -22l111 -150q16 -19 16 -47v-461q0 -23 17 -39t39 -16h319q23 0 39 15.5t16 37.5v80q0 20 14.5 34.5t34.5 14.5h84q19 0 33.5 -14.5t14.5 -34.5v-264q0 -19 -14.5 -33t-33.5 -14h-827 q-20 0 -33.5 14t-13.5 33z" />
<glyph unicode="M" horiz-adv-x="1470" d="M82 49v1337q0 17 13 32.5t34 15.5h471q57 0 137 -45q10 -3 17 0q61 45 137 45h262q97 0 166.5 -68.5t69.5 -165.5v-1151q0 -20 -15 -34.5t-35 -14.5h-84q-19 0 -33 14.5t-14 34.5v1151q0 23 -16 39t-39 16h-262q-23 0 -39 -16t-16 -39v-1151q0 -20 -14 -34.5t-34 -14.5 h-86q-20 0 -33.5 14.5t-13.5 34.5v1151q0 23 -17 39t-40 16h-279q-23 0 -40 -16t-17 -39v-289q0 -13 6 -22l111 -148q16 -22 16 -49v-643q0 -20 -13.5 -34.5t-33.5 -14.5h-219q-20 0 -33.5 14.5t-13.5 34.5z" />
<glyph unicode="N" horiz-adv-x="1085" d="M82 47v1339q0 20 13.5 34t33.5 14h639q97 0 166.5 -68.5t69.5 -165.5v-1153q0 -19 -14.5 -33t-33.5 -14h-84q-20 0 -34.5 14t-14.5 33v1153q0 23 -16 39t-39 16h-453q-23 0 -39 -16t-16 -39v-289q0 -13 6 -22l111 -148q16 -22 16 -49v-645q0 -19 -13.5 -33t-33.5 -14 h-217q-20 0 -33.5 14t-13.5 33z" />
<glyph unicode="O" horiz-adv-x="1073" d="M72 236v964q0 97 69 165.5t166 68.5h459q97 0 166 -68.5t69 -165.5v-964q0 -97 -69 -166.5t-166 -69.5h-459q-97 0 -166 69.5t-69 166.5zM250 911q0 -10 8 -22l109 -148q16 -22 16 -49v-459q0 -23 16 -39t39 -16h328q23 0 39 16t16 39v967q0 23 -16 39t-39 16h-459 q-23 0 -40 -16t-17 -39v-289z" />
<glyph unicode="P" horiz-adv-x="1064" d="M82 47v1153q0 97 68 165.5t165 68.5h453q97 0 166.5 -68.5t69.5 -165.5v-426q0 -97 -69.5 -166t-166.5 -69h-319q-23 0 -39.5 -16.5t-16.5 -39.5v-436q0 -20 -13.5 -33.5t-33.5 -13.5h-217q-20 0 -33.5 13.5t-13.5 33.5zM260 770q0 -22 16.5 -37.5t38.5 -15.5h453 q23 0 39 17t16 40v426q0 23 -16 39t-39 16h-453q-23 0 -39 -16t-16 -39v-430z" />
<glyph unicode="Q" horiz-adv-x="1103" d="M72 236v964q0 97 68 165.5t165 68.5h463q97 0 165 -68.5t68 -165.5v-823q0 -74 -53 -127l-55 -55q-3 -3 -4 -6.5t1.5 -6t8.5 -2.5h117q20 0 33.5 -14t13.5 -33v-84q0 -20 -13.5 -34.5t-33.5 -14.5h-711q-96 0 -164.5 69.5t-68.5 166.5zM250 911q0 -14 8 -22l109 -148 q16 -19 16 -47v-458q0 -23 16 -39.5t39 -16.5h205q28 0 49 21l111 110q18 18 18 56v833q0 23 -16 39t-39 16h-459q-23 0 -40 -16t-17 -39v-289z" />
<glyph unicode="R" horiz-adv-x="1085" d="M82 47v1151q0 97 68.5 166.5t164.5 69.5h455q97 0 165.5 -69.5t68.5 -166.5v-426q0 -118 -109 -199q-6 -4 -6.5 -12t4.5 -12l59 -60q52 -49 52 -120v-322q0 -20 -14 -33.5t-34 -13.5h-84q-20 0 -33.5 13.5t-13.5 33.5v303q0 34 -16 53l-115 115q-19 19 -41 19h-204 q-23 0 -39.5 -16.5t-16.5 -39.5v-434q0 -20 -13.5 -33.5t-33.5 -13.5h-217q-20 0 -33.5 13.5t-13.5 33.5zM260 768q1 -22 17 -36.5t38 -14.5h455q22 0 38.5 16t16.5 39v428q0 23 -16.5 39t-38.5 16h-455q-23 0 -39 -16t-16 -39v-432z" />
<glyph unicode="S" horiz-adv-x="1073" d="M72 236v79q0 20 13.5 33.5t33.5 13.5h86q20 0 33.5 -13.5t13.5 -33.5v-79q0 -24 16 -41t39 -17h328q23 0 39 16.5t16 38.5v388q0 23 -16.5 39t-38.5 16h-330q-97 0 -165 68t-68 165v289q0 97 68.5 166.5t164.5 69.5h463q96 0 164.5 -69.5t68.5 -166.5v-76 q0 -20 -13.5 -33.5t-33.5 -13.5h-84q-20 0 -33.5 13.5t-13.5 33.5v78q0 23 -16 39t-39 16h-461q-23 0 -39 -16t-16 -39v-289q0 -23 16 -39t39 -16h461q97 0 165 -68t68 -165v-387q0 -98 -68 -167t-165 -69h-463q-96 0 -164.5 69.5t-68.5 166.5z" />
<glyph unicode="T" horiz-adv-x="1044" d="M20 1303v83q0 20 14 34t34 14h909q19 0 33 -14t14 -34v-83q0 -20 -14 -34t-33 -14h-309q-23 0 -39.5 -16t-16.5 -39v-287q0 -13 6 -22l111 -150q16 -22 16 -49v-645q0 -20 -13.5 -33.5t-33.5 -13.5h-217q-20 0 -33.5 13.5t-13.5 33.5v1153q0 23 -17 39t-40 16h-309 q-20 0 -34 14t-14 34z" />
<glyph unicode="U" horiz-adv-x="1087" d="M82 236v1150q0 20 14.5 34t34.5 14h84q19 0 33 -14t14 -34v-1153q0 -23 16 -39t39 -16h322q22 0 38.5 15t16.5 38v461q0 25 17 49l110 150q6 9 6 22v473q0 20 14 34t33 14h82q20 0 35 -14t15 -34v-1150q0 -97 -69.5 -166.5t-166.5 -69.5h-453q-97 0 -166 69.5t-69 166.5z " />
<glyph unicode="V" horiz-adv-x="1101" d="M82 451v952q0 20 13.5 33.5t33.5 13.5h86q20 0 33.5 -13.5t13.5 -33.5v-481q0 -12 6 -21l111 -147q16 -22 16 -49v-246q0 -18 15 -33l165 -158q18 -18 43 -18q15 0 27 12l178 170q17 17 17 53v918q0 20 13.5 33.5t33.5 13.5h86q20 0 33.5 -13.5t13.5 -33.5v-952 q0 -70 -51 -121l-297 -289q-41 -41 -121 -41t-121 41l-297 289q-51 51 -51 121z" />
<glyph unicode="W" horiz-adv-x="1550" d="M82 410v976q0 20 14.5 34t34.5 14h84q19 0 33 -14t14 -34v-466q0 -12 6 -21l111 -149q16 -22 16 -50v-225q0 -32 29 -61l137 -135q17 -17 35 -17t35 17l39 43q16 16 16 53v1011q0 20 13.5 34t33.5 14h84q20 0 33.5 -14t13.5 -34v-956q0 -36 17 -53l161 -164 q16 -16 35 -16t35 16l160 164q16 19 16 53v956q0 20 14 34t33 14h84q20 0 34.5 -14t14.5 -34v-976q0 -70 -51 -121l-250 -252q-36 -39 -90 -39q-51 0 -90 39l-190 190q-15 11 -23 11q-9 0 -20 -11l-191 -190q-39 -39 -90 -39q-54 0 -90 39l-250 252q-51 51 -51 121z" />
<glyph unicode="X" horiz-adv-x="1085" d="M82 47v459q0 72 49 121l119 118q8 7 8 19t-8 20l-119 119q-49 49 -49 121v362q0 20 13.5 34t33.5 14h84q20 0 33.5 -14t13.5 -34v-344q0 -37 16 -53l113 -115q20 -20 51 -20h205q31 0 51 20l113 115q16 16 16 53v344q0 20 13.5 34t33.5 14h84q20 0 34 -14t14 -34v-362 q0 -71 -50 -121l-118 -119q-8 -8 -8 -20t8 -19l118 -118q50 -50 50 -121v-459q0 -20 -14 -33.5t-34 -13.5h-84q-20 0 -33.5 13.5t-13.5 33.5v438q0 40 -16 56l-115 114q-19 19 -49 19h-205q-17 0 -32 -8t-15 -25v-594q0 -20 -14.5 -33.5t-34.5 -13.5h-215q-20 0 -33.5 13.5 t-13.5 33.5z" />
<glyph unicode="Y" horiz-adv-x="1103" d="M61 776v610q0 21 14.5 35.5t35.5 14.5h84q19 0 33 -14.5t14 -35.5v-612q0 -23 16 -39t39 -16h510q23 0 39 16t16 39v612q0 21 14 35.5t33 14.5h84q21 0 35 -14t14 -36v-610q0 -83 -60.5 -154t-133.5 -71h-98q-17 0 -30 -16t-13 -35v-451q0 -19 -14 -34t-34 -15h-215 q-20 0 -33.5 15t-13.5 34v451q0 19 -13 35t-30 16h-98q-73 0 -134 71.5t-61 153.5z" />
<glyph unicode="Z" horiz-adv-x="1073" d="M72 47v533q0 37 20 78.5t51 66.5l662 457q24 16 24 41q0 14 -10 23t-28 9h-484q-23 0 -40 -17t-17 -40v-76q0 -19 -13.5 -33t-33.5 -14h-84q-19 0 -33 14t-14 33v264q0 20 14 34t33 14h835q20 0 33.5 -14t13.5 -34v-204q0 -78 -63 -129l-510 -348q-19 -14 -32 -39.5 t-13 -49.5v-383q0 -25 15 -40t40 -15h330q23 0 39 17t16 41v75q0 19 13.5 33t33.5 14h84q20 0 33.5 -14t13.5 -33v-264q0 -19 -13.5 -33t-33.5 -14h-835q-20 0 -33.5 13.5t-13.5 33.5z" />
<glyph unicode="\" horiz-adv-x="1046" d="M23 1399.5q5 18.5 22 27.5l74 43q17 9 35.5 4t27.5 -22l785 -1358q10 -17 5 -35.5t-22 -27.5l-73 -43q-17 -9 -36 -4t-28 22l-784 1358q-11 17 -6 35.5z" />
<glyph unicode="_" horiz-adv-x="888" d="M82 -115q0 20 14.5 33.5t34.5 13.5h627q20 0 34.5 -13.5t14.5 -33.5v-43q0 -20 -14.5 -33.5t-34.5 -13.5h-627q-20 0 -34.5 13.5t-14.5 33.5v43z" />
<glyph unicode="a" d="M72 233v228q0 96 71.5 164.5t169.5 68.5h377q23 0 39 17t16 41v104q0 23 -16 39t-39 16h-397q-23 0 -40 -16t-17 -39v-59q0 -20 -14 -33.5t-34 -13.5h-69q-20 0 -33.5 13.5t-13.5 33.5v45q0 97 68 165t165 68h371q97 0 165 -68t68 -165v-795q0 -20 -13.5 -33.5 t-33.5 -13.5h-557q-97 0 -165 68t-68 165zM236 221q0 -23 17 -40t40 -17h313q23 0 39.5 17t16.5 40v254q0 23 -16.5 39t-39.5 16h-317q-22 0 -37.5 -16.5t-15.5 -38.5v-254z" />
<glyph unicode="b" d="M72 233v1153q0 19 14 33.5t33 14.5h69q20 0 34 -14.5t14 -33.5v-260q0 -22 17 -37.5t40 -15.5h381q97 0 166 -68t69 -165v-607q0 -97 -69 -165t-166 -68h-367q-97 0 -166 68t-69 165zM236 782q0 -13 6 -22l61 -82q16 -22 16 -49v-408q0 -23 17.5 -40t40.5 -17h313 q23 0 39 17t16 40v635q0 23 -16 39t-39 16h-399q-23 0 -39 -17t-16 -40v-72z" />
<glyph unicode="c" d="M72 233v609q0 97 69 165t166 68h369q97 0 165 -68t68 -165v-43q0 -20 -13.5 -33.5t-33.5 -13.5h-69q-20 0 -34 13.5t-14 33.5v55q0 23 -17 40t-40 17h-397q-23 0 -39 -17t-16 -40v-72q0 -13 6 -22l61 -82q16 -22 16 -49v-408q0 -23 16.5 -40t39.5 -17h313q23 0 40 17 t17 40v37q0 20 14 33.5t34 13.5h69q20 0 33.5 -13.5t13.5 -33.5v-25q0 -97 -68 -165t-165 -68h-369q-97 0 -166 68t-69 165z" />
<glyph unicode="d" d="M72 233v609q0 97 68 165t165 68h385q22 0 38.5 15.5t16.5 37.5v258q0 19 14.5 33.5t33.5 14.5h69q20 0 33.5 -14.5t13.5 -33.5v-1339q0 -20 -13.5 -33.5t-33.5 -13.5h-557q-97 0 -165 68t-68 165zM236 221q0 -23 17 -40t40 -17h313q23 0 39.5 17t16.5 40v408q0 27 16 49 l61 82q6 9 6 22v72q0 23 -16 40t-39 17h-397q-23 0 -40 -16t-17 -39v-635z" />
<glyph unicode="e" d="M72 233v609q0 97 68 165t165 68h371q97 0 165 -68t68 -165v-176q0 -97 -68 -165.5t-165 -68.5h-283q-23 0 -39 -16t-16 -39v-156q0 -23 16 -40t39 -17h297q23 0 39 17t16 40v37q0 20 14 33.5t34 13.5h69q20 0 33.5 -13.5t13.5 -33.5v-25q0 -97 -68 -165t-165 -68h-371 q-97 0 -165 68t-68 165zM236 651q0 -23 16 -39t39 -16h401q22 0 37.5 16.5t15.5 38.5v205q0 23 -16 39t-39 16h-399q-23 0 -39 -16t-16 -39v-205z" />
<glyph unicode="f" horiz-adv-x="1017" d="M20 795v69q0 20 14.5 33.5t35.5 13.5h53q22 0 38.5 16t16.5 38v237q0 97 69.5 165.5t166.5 68.5h348q97 0 166 -68.5t69 -165.5v-26q0 -20 -14 -35t-33 -15h-71q-19 0 -33.5 15t-14.5 35v36q0 24 -16 41t-39 17h-379q-22 0 -38.5 -17.5t-16.5 -40.5v-251q0 -21 17 -35.5 t38 -14.5h387q20 0 33.5 -13.5t13.5 -33.5v-69q0 -19 -12.5 -33t-32.5 -14h-413q-12 0 -17 -8t2 -19l52 -68q16 -22 16 -49v-557q0 -20 -13.5 -33.5t-33.5 -13.5h-154q-20 0 -33.5 13.5t-13.5 33.5v647q0 22 -16 38t-39 16h-53q-20 0 -35 14t-15 33z" />
<glyph unicode="g" d="M72 -115q0 20 13.5 33.5t33.5 13.5h67q21 0 35.5 -13.5t14.5 -33.5v-22q0 -24 16 -41t39 -17h399q23 0 39 17t16 41v149q0 15 -32 2q-32 -14 -41 -14h-359q-98 0 -169.5 68.5t-71.5 164.5v609q0 97 69 165t166 68h367q97 0 166 -68t69 -165v-967q0 -97 -69 -165t-166 -68 h-367q-97 0 -166 68t-69 165v10zM236 221q0 -23 16 -40t39 -17h315q23 0 39.5 17t16.5 40v408q0 27 16 49l61 82q6 9 6 22v74q0 23 -16 39t-39 16h-399q-23 0 -39 -16t-16 -39v-635z" />
<glyph unicode="h" d="M72 47v1339q0 19 14 33.5t33 14.5h69q20 0 34 -14.5t14 -33.5v-276q0 -35 55 -35h383q97 0 166 -68t69 -165v-795q0 -20 -14 -33.5t-33 -13.5h-69q-20 0 -34 13.5t-14 33.5v809q0 23 -17 39t-40 16h-397q-23 0 -39 -16t-16 -39v-74q0 -13 6 -22l61 -82q16 -22 16 -49 v-582q0 -20 -14.5 -33.5t-34.5 -13.5h-149q-20 0 -34.5 13.5t-14.5 33.5z" />
<glyph unicode="i" horiz-adv-x="411" d="M82 47v981q0 20 14 33.5t33 13.5h70q20 0 33.5 -13.5t13.5 -33.5v-248q0 -11 8 -22l59 -80q17 -24 17 -49v-582q0 -20 -13.5 -33.5t-33.5 -13.5h-154q-19 0 -33 13.5t-14 33.5zM82 1202v184q0 20 14 34t33 14h70q20 0 33.5 -14t13.5 -34v-184q0 -20 -13.5 -33.5 t-33.5 -13.5h-70q-19 0 -33 13.5t-14 33.5z" />
<glyph unicode="j" horiz-adv-x="473" d="M-233 -115q0 20 14 33.5t33 13.5h69q19 0 33 -13.5t14 -33.5v-26q0 -23 16.5 -39.5t39.5 -16.5h80q23 0 39 16.5t16 39.5v770q0 30 16 49l62 82q6 8 6 22v246q0 20 14 33.5t33 13.5h70q20 0 33.5 -13.5t13.5 -33.5v-1153q0 -96 -69.5 -164.5t-166.5 -68.5h-131 q-97 0 -166 68t-69 165v10zM205 1202v184q0 20 14 34t33 14h70q20 0 33.5 -14t13.5 -34v-184q0 -20 -13.5 -33.5t-33.5 -13.5h-70q-19 0 -33 13.5t-14 33.5z" />
<glyph unicode="k" d="M72 47v1339q0 19 14 33.5t33 14.5h69q20 0 34 -14.5t14 -33.5v-636q0 -23 16 -39.5t39 -16.5h268q26 0 49 23l119 121q18 21 18 53v137q0 20 14 33.5t34 13.5h69q19 0 33 -13.5t14 -33.5v-151q0 -70 -51 -121l-84 -84q-9 -9 -8.5 -18.5t8.5 -12.5q135 -47 135 -182v-412 q0 -20 -14 -33.5t-33 -13.5h-69q-20 0 -34 13.5t-14 33.5v430q0 23 -17 39t-40 16h-317q-21 0 -36.5 -16.5t-15.5 -38.5v-430q0 -20 -13.5 -33.5t-33.5 -13.5h-151q-20 0 -34.5 13.5t-14.5 33.5z" />
<glyph unicode="l" horiz-adv-x="411" d="M82 47v1339q0 19 14 33.5t33 14.5h70q20 0 33.5 -14.5t13.5 -33.5v-606q0 -11 8 -22l59 -80q17 -24 17 -49v-582q0 -20 -13.5 -33.5t-33.5 -13.5h-154q-19 0 -33 13.5t-14 33.5z" />
<glyph unicode="m" horiz-adv-x="1337" d="M72 47v981q0 20 14 33.5t33 13.5h407q80 0 144 -49q13 -10 26 0q61 49 144 49h190q97 0 166.5 -68.5t69.5 -164.5v-795q0 -20 -13.5 -33.5t-33.5 -13.5h-70q-20 0 -33.5 13.5t-13.5 33.5v809q0 23 -16 39t-39 16h-232q-23 0 -39 -16t-16 -39v-809q0 -20 -14.5 -33.5 t-34.5 -13.5h-68q-19 0 -33 13.5t-14 33.5v809q0 23 -16 39t-39 16h-250q-23 0 -39 -16t-16 -39v-74q0 -13 6 -22l61 -82q16 -22 16 -49v-582q0 -20 -13.5 -33.5t-33.5 -13.5h-153q-19 0 -33 13.5t-14 33.5z" />
<glyph unicode="n" d="M72 47v981q0 20 14.5 33.5t34.5 13.5h553q97 0 166 -68t69 -165v-795q0 -20 -14 -33.5t-33 -13.5h-69q-20 0 -34 13.5t-14 33.5v809q0 23 -17 39t-40 16h-397q-23 0 -39 -16t-16 -39v-74q0 -13 6 -22l61 -82q16 -22 16 -49v-582q0 -20 -13.5 -33.5t-33.5 -13.5h-151 q-20 0 -34.5 13.5t-14.5 33.5z" />
<glyph unicode="o" d="M72 236v606q0 97 69 165t166 68h367q97 0 166 -68t69 -165v-606q0 -97 -69 -166.5t-166 -69.5h-367q-97 0 -166 69.5t-69 166.5zM236 782q0 -14 6 -22l61 -82q16 -19 16 -49v-408q0 -23 16.5 -40t39.5 -17h313q23 0 40 17t17 40v635q0 23 -17 39t-40 16h-397 q-23 0 -39 -16t-16 -39v-74z" />
<glyph unicode="p" d="M72 -311v1153q0 97 69 165t166 68h367q97 0 166 -68t69 -165v-606q0 -97 -69 -166.5t-166 -69.5h-383q-23 0 -39 -16t-16 -39v-256q0 -20 -14.5 -33.5t-33.5 -13.5h-67q-20 0 -34.5 13.5t-14.5 33.5zM236 782q0 -14 6 -22l63 -84q14 -17 14 -49v-406q0 -23 16.5 -40 t41.5 -17h311q23 0 40 17t17 40v635q0 23 -17 39t-40 16h-397q-23 0 -39 -16t-16 -39v-74z" />
<glyph unicode="q" horiz-adv-x="995" d="M72 233v609q0 97 69 165t166 68h367q97 0 166 -68t69 -165v-981q0 -23 16.5 -39.5t39.5 -16.5h79q20 0 34 -14.5t14 -34.5v-67q0 -20 -14 -33.5t-34 -13.5h-59q-98 0 -166.5 68t-68.5 165v107q0 13 -9.5 19t-21.5 3q-14 -4 -45 -4h-367q-97 0 -166 68t-69 165zM236 221 q0 -23 16 -40t39 -17h313q23 0 40.5 17t17.5 40v408q0 30 16 49l61 82q6 8 6 22v74q0 23 -17 39t-40 16h-397q-23 0 -39 -16t-16 -39v-635z" />
<glyph unicode="r" horiz-adv-x="960" d="M82 47v981q0 20 14.5 33.5t34.5 13.5h533q97 0 166 -68t69 -165v-45q0 -20 -14 -33.5t-33 -13.5h-70q-20 0 -33.5 13.5t-13.5 33.5v59q0 23 -17 39t-40 16h-377q-23 0 -39 -16t-16 -39v-74q0 -13 6 -22l61 -82q17 -24 17 -49v-582q0 -20 -13.5 -33.5t-33.5 -13.5h-152 q-20 0 -34.5 13.5t-14.5 33.5z" />
<glyph unicode="s" d="M72 233v25q0 20 14 33.5t33 13.5h69q19 0 33.5 -13.5t14.5 -33.5v-37q0 -23 16 -40t39 -17h313q23 0 40.5 17t17.5 40v209q0 23 -17 39t-41 16h-297q-97 0 -166 69.5t-69 166.5v121q0 97 69 165t166 68h367q97 0 166 -68t69 -165v-45q0 -20 -14 -33.5t-33 -13.5h-69 q-19 0 -33.5 13.5t-14.5 33.5v57q0 23 -16 40t-39 17h-399q-23 0 -39 -17t-16 -40v-149q0 -23 16 -39.5t39 -16.5h383q97 0 166 -69t69 -166v-181q0 -97 -69 -165t-166 -68h-367q-97 0 -166 68t-69 165z" />
<glyph unicode="t" d="M31 958v70q0 20 13.5 33.5t33.5 13.5h51q22 0 38.5 15.5t16.5 37.5v177q0 19 13.5 33t33.5 14h70q20 0 33.5 -14t13.5 -33v-181q0 -20 16.5 -34.5t38.5 -14.5h459q20 0 33.5 -13.5t13.5 -33.5v-70q0 -19 -13.5 -33t-33.5 -14h-459q-23 0 -39 -16t-16 -39v-74q0 -14 6 -22 l62 -82q16 -19 16 -49v-408q0 -23 16 -40t39 -17h203q23 0 39 17t16 40v37q0 20 14.5 33.5t33.5 13.5h69q19 0 33 -13.5t14 -33.5v-25q0 -97 -69 -165t-166 -68h-256q-97 0 -165.5 69.5t-68.5 166.5v622q0 22 -16.5 37.5t-38.5 15.5h-51q-20 0 -33.5 14t-13.5 33z" />
<glyph unicode="u" d="M72 233v795q0 20 13.5 33.5t33.5 13.5h69q20 0 34 -13.5t14 -33.5v-807q0 -23 17 -40t40 -17h313q23 0 39.5 17t16.5 40v408q0 27 16 49l61 82q6 9 6 22v246q0 20 14 33.5t34 13.5h69q20 0 33.5 -13.5t13.5 -33.5v-795q0 -97 -69 -165t-166 -68h-369q-97 0 -165 68 t-68 165z" />
<glyph unicode="v" horiz-adv-x="978" d="M72 428v600q0 20 13.5 33.5t33.5 13.5h69q19 0 33.5 -13.5t14.5 -33.5v-246q0 -13 6 -22l61 -82q16 -22 16 -49v-199q0 -24 19 -43l141 -147q17 -17 43 -17q30 0 47 17l156 155q18 18 18 62v571q0 20 14.5 33.5t33.5 13.5h69q20 0 33.5 -13.5t13.5 -33.5v-600 q0 -70 -49 -119l-272 -276q-36 -39 -97 -39q-60 0 -96 39l-272 276q-49 49 -49 119z" />
<glyph unicode="w" horiz-adv-x="1363" d="M72 352v676q0 20 13.5 33.5t33.5 13.5h69q19 0 33.5 -13.5t14.5 -33.5v-246q0 -13 6 -22l61 -82q16 -22 16 -49v-279q0 -24 19 -43l63 -65q19 -19 48 -19q28 0 47 19l84 77q20 20 20 62v647q0 20 14 33.5t33 13.5h70q19 0 33 -13.5t14 -33.5v-647q0 -42 20 -62l115 -114 q17 -17 47 -17t47 17l115 114q20 20 20 62v647q0 20 14.5 33.5t33.5 13.5h69q20 0 33.5 -13.5t13.5 -33.5v-676q0 -70 -49 -119l-201 -200q-39 -39 -96 -39t-96 39l-148 147q-20 20 -40 0l-148 -147q-39 -39 -96 -39t-96 39l-201 200q-49 49 -49 119z" />
<glyph unicode="x" d="M72 47v363q0 135 135 182q8 3 8.5 12.5t-8.5 18.5l-84 84q-51 51 -51 120v201q0 20 13.5 33.5t33.5 13.5h69q20 0 34 -13.5t14 -33.5v-192q0 -38 16 -54l110 -110q13 -13 27 -13h205q14 0 27 13l108 110q16 16 16 54v192q0 20 14.5 33.5t33.5 13.5h69q20 0 33.5 -13.5 t13.5 -33.5v-201q0 -71 -49 -120l-86 -84q-8 -9 -7.5 -18.5t7.5 -12.5q135 -52 135 -182v-363q0 -20 -13.5 -33.5t-33.5 -13.5h-69q-19 0 -33.5 13.5t-14.5 33.5v381q0 23 -16 39t-39 16h-315q-23 0 -39.5 -16t-16.5 -39v-381q0 -20 -14 -33.5t-33 -13.5h-153 q-20 0 -33.5 13.5t-13.5 33.5z" />
<glyph unicode="y" d="M72 -115q0 20 13.5 33.5t33.5 13.5h69q20 0 34 -13.5t14 -33.5v-24q0 -23 16 -39.5t39 -16.5h399q23 0 39 16.5t16 39.5v151q0 7 -5 8.5t-13 -1.5t-17.5 -7.5t-20 -8t-17.5 -3.5h-367q-97 0 -165 68t-68 165v795q0 20 13.5 33.5t33.5 13.5h69q20 0 34 -13.5t14 -33.5 v-807q0 -23 17 -40t40 -17h313q23 0 39.5 17t16.5 40v408q0 30 16 49l61 82q6 8 6 22v246q0 20 14 33.5t34 13.5h69q20 0 33.5 -13.5t13.5 -33.5v-1153q0 -97 -69 -165t-166 -68h-369q-97 0 -165 68t-68 165v10z" />
<glyph unicode="z" horiz-adv-x="978" d="M72 47v348q0 29 18.5 61.5t46.5 51.5l594 334q16 8 20.5 24.5t-7 30.5t-37.5 14h-414q-23 0 -40 -16t-17 -39v-59q0 -20 -14 -33.5t-34 -13.5h-69q-19 0 -33 13.5t-14 33.5v231q0 20 14 33.5t33 13.5h741q20 0 33.5 -13.5t13.5 -33.5v-205q0 -61 -53 -92l-502 -280 q-20 -12 -26.5 -24.5t-6.5 -35.5v-172q0 -23 17 -39t41 -16h307q23 0 39 16t18 39l2 39q2 21 15 34t33 13h69q19 0 33 -13.5t14 -33.5v-211q0 -20 -14 -33.5t-33 -13.5h-741q-20 0 -33.5 13.5t-13.5 33.5z" />
<glyph unicode="&#xad;" horiz-adv-x="593" d="M72 608v70q0 20 14.5 33.5t34.5 13.5h352q20 0 34.5 -13.5t14.5 -33.5v-70q0 -20 -14.5 -33.5t-34.5 -13.5h-352q-20 0 -34.5 13.5t-14.5 33.5z" />
<glyph unicode="&#x2000;" horiz-adv-x="795" />
<glyph unicode="&#x2001;" horiz-adv-x="1591" />
<glyph unicode="&#x2002;" horiz-adv-x="795" />
<glyph unicode="&#x2003;" horiz-adv-x="1591" />
<glyph unicode="&#x2004;" horiz-adv-x="530" />
<glyph unicode="&#x2005;" horiz-adv-x="397" />
<glyph unicode="&#x2006;" horiz-adv-x="265" />
<glyph unicode="&#x2007;" horiz-adv-x="265" />
<glyph unicode="&#x2008;" horiz-adv-x="198" />
<glyph unicode="&#x2009;" horiz-adv-x="318" />
<glyph unicode="&#x200a;" horiz-adv-x="88" />
<glyph unicode="&#x2010;" horiz-adv-x="593" d="M72 608v70q0 20 14.5 33.5t34.5 13.5h352q20 0 34.5 -13.5t14.5 -33.5v-70q0 -20 -14.5 -33.5t-34.5 -13.5h-352q-20 0 -34.5 13.5t-14.5 33.5z" />
<glyph unicode="&#x2011;" horiz-adv-x="593" d="M72 608v70q0 20 14.5 33.5t34.5 13.5h352q20 0 34.5 -13.5t14.5 -33.5v-70q0 -20 -14.5 -33.5t-34.5 -13.5h-352q-20 0 -34.5 13.5t-14.5 33.5z" />
<glyph unicode="&#x2012;" horiz-adv-x="593" d="M72 608v70q0 20 14.5 33.5t34.5 13.5h352q20 0 34.5 -13.5t14.5 -33.5v-70q0 -20 -14.5 -33.5t-34.5 -13.5h-352q-20 0 -34.5 13.5t-14.5 33.5z" />
<glyph unicode="&#x2013;" horiz-adv-x="1167" d="M72 608v70q0 20 33 33.5t79 13.5h800q46 0 79 -13.5t33 -33.5v-70q0 -20 -33 -33.5t-79 -13.5h-800q-46 0 -79 13.5t-33 33.5z" />
<glyph unicode="&#x2014;" horiz-adv-x="2191" d="M72 608v70q0 20 66 33.5t157 13.5h1602q91 0 157 -13.5t66 -33.5v-70q0 -20 -66 -33.5t-157 -13.5h-1602q-91 0 -157 13.5t-66 33.5z" />
<glyph unicode="&#x2018;" horiz-adv-x="315" d="M61 1219v94q0 48 29 84l98 114q17 19 41.5 8.5t24.5 -34.5v-266q0 -20 -13.5 -34t-33.5 -14h-98q-20 0 -34 14t-14 34z" />
<glyph unicode="&#x2019;" horiz-adv-x="315" d="M61 1223v266q0 20 14 33.5t34 13.5h98q20 0 33.5 -13.5t13.5 -33.5v-94q0 -48 -29 -84l-98 -115q-17 -19 -41.5 -8t-24.5 35z" />
<glyph unicode="&#x201c;" horiz-adv-x="567" d="M61 1229v94q0 48 29 84l98 115q17 19 41.5 8t24.5 -35v-266q0 -20 -13.5 -33.5t-33.5 -13.5h-98q-20 0 -34 13.5t-14 33.5zM313 1229v94q0 48 29 84l98 115q17 19 41.5 8t24.5 -35v-266q0 -20 -13.5 -33.5t-33.5 -13.5h-99q-20 0 -33.5 13.5t-13.5 33.5z" />
<glyph unicode="&#x201d;" horiz-adv-x="567" d="M61 1223v266q0 20 14 33.5t34 13.5h98q20 0 33.5 -13.5t13.5 -33.5v-94q0 -48 -29 -84l-98 -115q-17 -19 -41.5 -8t-24.5 35zM313 1223v266q0 20 13.5 33.5t33.5 13.5h99q20 0 33.5 -13.5t13.5 -33.5v-94q0 -48 -29 -84l-98 -115q-17 -19 -41.5 -8t-24.5 35z" />
<glyph unicode="&#x2022;" horiz-adv-x="538" d="M82 549v254q0 25 17 43t42 18h254q25 0 43.5 -18t18.5 -43v-254q0 -25 -18.5 -42.5t-43.5 -17.5h-254q-25 0 -42 17.5t-17 42.5z" />
<glyph unicode="&#x202f;" horiz-adv-x="318" />
<glyph unicode="&#x205f;" horiz-adv-x="397" />
<glyph unicode="&#x25fc;" horiz-adv-x="1075" d="M0 0v1075h1075v-1075h-1075z" />
</font>
</defs>
</svg>
